<?xml version="1.0" standalone="no"?>
<!DOCTYPE svg PUBLIC "-//W3C//DTD SVG 20010904//EN"
 "http://www.w3.org/TR/2001/REC-SVG-20010904/DTD/svg10.dtd">
<svg version="1.0" xmlns="http://www.w3.org/2000/svg"
 width="944.000000pt" height="944.000000pt" viewBox="0 0 944.000000 944.000000"
 preserveAspectRatio="xMidYMid meet">
<metadata>
Created by potrace 1.11, written by Peter Selinger 2001-2013
</metadata>
<g transform="translate(0.000000,944.000000) scale(0.100000,-0.100000)"
fill="#000000" stroke="none">
<path d="M5237 8074 c-1 -2 -29 -5 -62 -8 -33 -3 -85 -10 -115 -17 -30 -7 -65
-13 -77 -13 -12 -1 -25 -5 -29 -9 -4 -4 -15 -7 -25 -7 -14 0 -241 -68 -289
-87 -8 -3 -20 -7 -25 -8 -6 -2 -32 -12 -57 -24 -26 -11 -54 -21 -62 -21 -8 0
-17 -4 -20 -9 -3 -5 -16 -11 -29 -15 -12 -3 -58 -22 -102 -42 -44 -20 -82 -37
-85 -37 -7 0 -324 -160 -330 -167 -3 -3 -23 -14 -45 -26 -22 -11 -58 -31 -80
-44 -22 -13 -49 -28 -60 -34 -11 -6 -31 -19 -45 -27 -14 -9 -77 -49 -140 -89
-63 -41 -119 -79 -125 -85 -5 -6 -23 -20 -40 -30 -179 -113 -505 -468 -737
-800 -118 -170 -168 -245 -168 -255 0 -5 -4 -10 -9 -10 -5 0 -11 -8 -15 -17
-3 -10 -30 -56 -60 -103 -30 -47 -64 -101 -74 -120 -33 -61 -152 -274 -162
-290 -10 -16 -52 -101 -55 -110 0 -3 -21 -43 -45 -90 -24 -47 -44 -87 -45 -90
-1 -3 -14 -32 -29 -65 -15 -33 -34 -73 -41 -90 -7 -16 -22 -51 -34 -77 -11
-26 -21 -55 -21 -63 0 -8 -4 -15 -10 -15 -5 0 -10 -6 -10 -14 0 -8 -20 -65
-44 -128 -42 -108 -58 -150 -57 -155 0 -2 -7 -22 -15 -45 -9 -24 -17 -47 -18
-53 -2 -5 -6 -17 -9 -25 -8 -21 -58 -191 -62 -210 -2 -8 -8 -35 -15 -60 -7
-25 -13 -51 -13 -57 0 -7 -4 -13 -9 -13 -5 0 -7 -4 -4 -9 4 -5 -1 -40 -10 -78
-9 -37 -17 -77 -19 -88 -3 -23 -14 -88 -21 -125 -6 -37 -25 -198 -29 -250 -7
-80 -6 -364 0 -415 4 -27 8 -70 10 -95 2 -25 4 -45 5 -45 2 0 10 -38 16 -75 5
-41 41 -177 53 -205 5 -11 14 -39 20 -63 7 -23 15 -42 20 -42 4 0 8 -6 8 -12
0 -35 190 -378 214 -386 5 -2 9 -8 9 -13 0 -25 217 -281 304 -358 16 -14 45
-42 65 -61 20 -19 59 -53 86 -75 28 -22 52 -43 53 -47 2 -5 10 -8 17 -8 7 0
15 -4 17 -9 4 -12 211 -150 278 -185 30 -16 58 -34 61 -39 3 -5 8 -8 10 -7 8
3 45 -14 71 -32 16 -11 28 -17 28 -14 0 2 33 -10 73 -29 149 -69 429 -155 587
-180 14 -2 43 -7 65 -10 67 -11 98 -15 151 -18 28 -2 55 -6 60 -9 11 -6 463
-1 514 6 19 2 55 7 80 10 46 5 106 14 150 22 76 15 118 23 140 28 52 12 80 18
85 17 2 0 23 6 45 14 22 8 40 12 40 10 0 -3 17 1 38 9 38 14 123 41 132 41 11
1 116 38 125 44 6 4 28 13 50 20 22 7 60 22 85 33 25 11 50 22 55 23 19 4 90
37 210 97 66 34 138 70 160 81 22 11 42 22 45 26 3 3 23 15 45 26 22 11 42 22
45 26 3 3 12 9 20 12 8 4 29 16 45 27 17 11 38 23 48 26 9 4 17 9 17 13 0 3
13 12 28 19 16 6 38 21 50 32 12 11 25 20 30 20 4 0 17 8 28 18 10 10 26 21
34 25 8 4 38 23 65 43 49 35 66 48 136 101 20 16 51 39 69 53 18 14 41 32 51
41 10 8 30 24 44 35 15 10 37 28 49 39 12 11 51 45 86 75 35 30 80 71 100 90
20 19 55 52 78 73 23 20 41 37 39 37 -2 0 31 35 73 78 98 103 159 172 189 213
14 19 33 40 43 47 10 7 18 19 18 27 0 7 3 15 8 17 7 3 112 135 112 141 0 2 28
47 63 99 34 53 74 116 89 140 41 68 141 274 178 368 18 47 36 94 41 105 10 25
38 115 44 141 2 10 9 37 15 59 14 53 19 75 25 105 3 14 7 35 9 48 42 209 38
546 -8 700 -3 9 -7 28 -10 42 -2 14 -10 39 -17 55 -7 17 -12 33 -11 37 2 8
-40 105 -75 173 -86 169 -246 328 -403 402 -69 32 -182 64 -237 67 -27 1 -54
5 -59 7 -15 7 -119 3 -132 -5 -7 -4 -15 -5 -19 -3 -5 2 -48 -1 -97 -8 -115
-16 -223 -10 -260 13 -6 3 -17 7 -24 8 -14 2 -58 35 -103 75 -35 32 -114 149
-130 193 -7 20 -16 36 -20 36 -9 0 -55 121 -51 133 1 4 -3 7 -10 7 -6 0 -8 3
-5 6 3 4 1 16 -5 28 -7 11 -13 23 -13 26 -1 3 -15 50 -33 105 -29 93 -57 193
-67 240 -3 11 -14 56 -24 100 -11 44 -22 91 -25 105 -2 14 -11 59 -20 100 -8
41 -17 86 -20 100 -3 14 -7 36 -10 50 -3 13 -8 42 -11 65 -3 22 -8 47 -11 56
-2 9 -7 32 -9 50 -3 19 -7 45 -10 59 -4 14 -8 43 -11 65 -2 22 -6 51 -8 65 -7
42 -17 104 -21 130 -6 45 -26 174 -31 195 -2 11 -8 38 -12 61 -20 93 -100 195
-190 242 -64 33 -159 53 -262 56 -55 2 -101 2 -103 0z"/>
</g>
</svg>
