<?xml version="1.0" encoding="utf-8"?>
<!-- Generator: Adobe Illustrator 21.0.2, SVG Export Plug-In . SVG Version: 6.00 Build 0)  -->
<svg version="1.1" id="Calque_1" xmlns="http://www.w3.org/2000/svg" xmlns:xlink="http://www.w3.org/1999/xlink" x="0px" y="0px"
	 viewBox="0 0 300 568" style="enable-background:new 0 0 300 568;" xml:space="preserve">
<style type="text/css">
	.st0{fill:#E5E5E5;}
	.st1{fill:none;stroke:#FFFFFF;stroke-width:5.2;stroke-linecap:round;stroke-miterlimit:10;}
	.st2{fill:#E5E5E5;stroke:#E5E5E5;stroke-width:1.73;}
	.st3{fill:#F76B6B;}
</style>
<path class="st0" d="M11.6,308.7c-1.6,0.5,17.2-36.9,35.3-12.8S86,312.4,81,348.4s-26.7,37.8-41.8,28.3S4,344.7,9.5,333.3
	S11.6,308.7,11.6,308.7z"/>
<line class="st1" x1="54.2" y1="327.1" x2="37.6" y2="343.6"/>
<line class="st1" x1="54.2" y1="343.6" x2="37.6" y2="327.1"/>
<path class="st0" d="M217.6,22.7c-1.6,0.5,17.2-36.9,35.4-12.8S292,26.4,287,62.3s-26.6,37.8-41.8,28.3S210,58.7,215.5,47.3
	S217.6,22.7,217.6,22.7z"/>
<line class="st1" x1="260.1" y1="41.1" x2="243.6" y2="57.6"/>
<line class="st1" x1="260.1" y1="57.6" x2="243.6" y2="41.1"/>
<path class="st2" d="M91.5,202.6c-6.7,22.2-1.4,24.1-27,30.4s-22.5-0.8-33.4-4.7s12.7-62.7,22.3-64.6s32.3-7.4,34.4,0
	S91.5,202.6,91.5,202.6z"/>
<path class="st2" d="M265.5,151.6c-6.7,22.2-1.4,24.1-27,30.4s-22.5-0.8-33.4-4.7s12.7-62.7,22.3-64.6s32.3-7.4,34.4,0
	S265.5,151.6,265.5,151.6z"/>
<line class="st1" x1="243.6" y1="136.5" x2="231.9" y2="156.8"/>
<line class="st1" x1="70.3" y1="187.5" x2="58.6" y2="207.8"/>
<path class="st2" d="M290.5,518.6c-6.7,22.2-1.4,24.1-27,30.4s-22.5-0.8-33.4-4.7s12.7-62.7,22.3-64.6s32.3-7.4,34.4,0
	S290.5,518.6,290.5,518.6z"/>
<path class="st0" d="M94.1,451.7c-1.6,0.5,17.2-36.9,35.3-12.8s39.1,16.4,34.1,52.4s-26.6,37.8-41.8,28.3S86.6,487.7,92,476.3
	S94.1,451.7,94.1,451.7z"/>
<line class="st1" x1="136.7" y1="470.1" x2="120.2" y2="486.6"/>
<line class="st1" x1="136.7" y1="486.6" x2="120.2" y2="470.1"/>
<path class="st2" d="M169.3,373.6c-6.7,22.2-1.4,24.1-27,30.4s-22.5-0.8-33.4-4.7s12.7-62.7,22.3-64.6s32.3-7.4,34.4,0
	S169.3,373.6,169.3,373.6z"/>
<path class="st3" d="M89.8,4.8C89.8,4.8,39.5-7,45,23s13.8,54.4,44.8,47.5s15.7-5.6,0-24.4s36.8-3.5,36.4-21S89.8,4.8,89.8,4.8z"/>
<line class="st1" x1="74.1" y1="16.6" x2="74.1" y2="40"/>
<line class="st1" x1="85.8" y1="28.3" x2="62.5" y2="28.3"/>
<path class="st0" d="M65,137.9c-26.5,20.3-50.7,10.1-58.8-6.3s8-45.2,18.6-55.2c6.1-5.8,31.1-18.9,32.7-7.4c4,28.7,8.5,25.4,13,25
	C84.5,92.6,91.5,117.7,65,137.9z"/>
<line class="st1" x1="52" y1="111.4" x2="32.4" y2="111.4"/>
<path class="st0" d="M279,290.9c-26.5,20.2-50.7,10.1-58.8-6.3s8-45.2,18.6-55.2c6.1-5.8,31.1-18.9,32.7-7.4c4,28.7,8.5,25.4,13,25
	C298.5,245.6,305.5,270.6,279,290.9z"/>
<line class="st1" x1="266" y1="264.4" x2="246.4" y2="264.4"/>
<path class="st3" d="M142.5,231.8c0,0-50.3-11.8-44.9,18.2s13.8,54.5,44.9,47.5s15.7-5.6,0-24.4s36.8-3.5,36.4-20.9
	S142.5,231.8,142.5,231.8z"/>
<line class="st1" x1="126.8" y1="243.6" x2="126.8" y2="267"/>
<line class="st1" x1="138.5" y1="255.3" x2="115.1" y2="255.3"/>
<path class="st3" d="M246.5,356.8c0,0-50.3-11.8-44.9,18.2s13.8,54.5,44.9,47.5s15.7-5.6,0-24.4s36.8-3.5,36.4-21
	S246.5,356.8,246.5,356.8z"/>
<line class="st1" x1="230.8" y1="368.6" x2="230.8" y2="392"/>
<line class="st1" x1="242.5" y1="380.3" x2="219.1" y2="380.3"/>
<path class="st0" d="M70.6,544.9c-26.5,20.3-50.7,10.1-58.8-6.3s8-45.2,18.6-55.2c6.1-5.8,31.1-18.9,32.7-7.4c4,28.7,8.5,25.4,13,25
	C90.1,499.6,97.1,524.7,70.6,544.9z"/>
<line class="st1" x1="57.6" y1="518.4" x2="38" y2="518.4"/>
<line class="st1" x1="147.4" y1="358.5" x2="135.7" y2="378.8"/>
<line class="st1" x1="268.9" y1="505.5" x2="257.2" y2="525.8"/>
</svg>
